# xmcd
#
# Track frame offsets: 
#        150
#        13694
#        35323
#        59712
#        84976
#        134954
#        163972
#
# Disc length: 2612 seconds
#
# Revision: 0
# Processed by: cddbd v1.5.2PL0 Copyright (c) Steve Scherf et al.
# Submitted via: ExactAudioCopyFreeDBPlugin 1.0
#
DISCID=610a3207
DTITLE=Zoe, Layla - Live At Spirit Of 66 - CD 1
DYEAR=2015
DGENRE=Blues
TTITLE0=I've Been Down
TTITLE1=Pull Yourself Together
TTITLE2=I Choose You
TTITLE3=Green Eyed Lover
TTITLE4=Gemini Heart
TTITLE5=In Her Mother's House
TTITLE6=They Lie
EXTD=
EXTT0=
EXTT1=
EXTT2=
EXTT3=
EXTT4=
EXTT5=
EXTT6=
PLAYORDER=
